<svg xmlns="http://www.w3.org/2000/svg" viewBox="0 0 1200 800" width="1200" height="800" role="img" aria-label="Placeholder image">
  <defs>
    <linearGradient id="bg5" x1="0" y1="0" x2="1" y2="1">
      <stop offset="0" stop-color="#F9F1E3"/>
      <stop offset="1" stop-color="#E6D6BB"/>
    </linearGradient>
    <linearGradient id="light" x1="0" y1="0" x2="1" y2="1">
      <stop offset="0" stop-color="#FFF8E8"/>
      <stop offset="1" stop-color="#EFD9AE"/>
    </linearGradient>
    <filter id="grain5">
      <feTurbulence type="fractalNoise" baseFrequency=".85" numOctaves="3" stitchTiles="stitch"/>
      <feColorMatrix type="saturate" values="0"/>
    </filter>
  </defs>

  <rect width="1200" height="800" fill="url(#bg5)"/>

  <rect x="90" y="70" width="400" height="430" rx="14" fill="url(#light)"/>
  <rect x="90" y="70" width="400" height="430" rx="14" fill="none" stroke="#CDB391" stroke-width="4"/>
  <path d="M290 70v430M90 285h400" stroke="#CDB391" stroke-width="4"/>

  <path d="M620 500L760 70h200L820 500z" fill="#F5E3C2" opacity=".55"/>
  <path d="M180 500L300 70h120L300 500z" fill="#FFFBF0" opacity=".35"/>

  <rect x="620" y="470" width="470" height="26" rx="8" fill="#D8C09A"/>
  <rect x="660" y="496" width="20" height="200" fill="#C7AA80"/>
  <rect x="1010" y="496" width="20" height="200" fill="#C7AA80"/>

  <ellipse cx="780" cy="452" rx="46" ry="16" fill="#E9D9BE"/>
  <path d="M748 452h64v-40a32 32 0 0 0-64 0z" fill="#FFFDF7"/>
  <ellipse cx="780" cy="414" rx="32" ry="10" fill="#C98A50"/>

  <ellipse cx="950" cy="456" rx="42" ry="14" fill="#E9D9BE"/>
  <circle cx="950" cy="424" r="34" fill="#FFFDF7"/>
  <circle cx="950" cy="424" r="22" fill="#8FA36F" opacity=".7"/>

  <rect width="1200" height="800" filter="url(#grain5)" opacity=".07"/>
</svg>
